<?xml version="1.0" encoding="UTF-8"?><svg id="Calque_1" xmlns="http://www.w3.org/2000/svg" xmlns:xlink="http://www.w3.org/1999/xlink" viewBox="0 0 566.93 566.93"><defs><style>.cls-1{stroke:#000;stroke-miterlimit:10;stroke-width:.25px;}.cls-2{fill:url(#Dégradé_sans_nom_11);}.cls-3{fill:url(#Dégradé_sans_nom_11-7);}.cls-4{fill:url(#Dégradé_sans_nom_11-3);}.cls-5{fill:url(#Dégradé_sans_nom_11-5);}.cls-6{fill:url(#Dégradé_sans_nom_11-6);}.cls-7{fill:url(#Dégradé_sans_nom_11-4);}.cls-8{fill:url(#Dégradé_sans_nom_11-2);}</style><linearGradient id="Dégradé_sans_nom_11" x1="12.1" y1="188.72" x2="432.21" y2="614.12" gradientUnits="userSpaceOnUse"><stop offset="0" stop-color="#9c005d"/><stop offset=".31" stop-color="#ab3365"/><stop offset="1" stop-color="#cca378"/><stop offset="1" stop-color="#662d8f"/></linearGradient><linearGradient id="Dégradé_sans_nom_11-2" x1="91.97" y1="109.85" x2="512.08" y2="535.24" xlink:href="#Dégradé_sans_nom_11"/><linearGradient id="Dégradé_sans_nom_11-3" x1="-15.06" y1="215.55" x2="405.05" y2="640.94" xlink:href="#Dégradé_sans_nom_11"/><linearGradient id="Dégradé_sans_nom_11-4" x1="213.32" y1="-9.99" x2="633.43" y2="415.4" xlink:href="#Dégradé_sans_nom_11"/><linearGradient id="Dégradé_sans_nom_11-5" x1="104.78" y1="97.19" x2="524.89" y2="522.59" xlink:href="#Dégradé_sans_nom_11"/><linearGradient id="Dégradé_sans_nom_11-6" x1="220.28" y1="-16.87" x2="640.39" y2="408.53" xlink:href="#Dégradé_sans_nom_11"/><linearGradient id="Dégradé_sans_nom_11-7" x1="141.88" y1="60.56" x2="561.99" y2="485.96" xlink:href="#Dégradé_sans_nom_11"/></defs><path class="cls-1" d="M138.67,414.66c-1.16,0-2.05.5-2.66,1.5-.26.45-.4.97-.44,1.55v30.34c0,2.71-.85,5-2.54,6.87-1.69,1.87-3.78,2.81-6.27,2.81v-.44c1.58-.55,2.92-1.73,4.02-3.56,1.1-1.82,1.65-3.77,1.65-5.83v-30.2c-.03-.84-.35-1.56-.94-2.15-.6-.6-1.31-.9-2.15-.9h-.63v-.48h10.6v.48h-.63Z"/><path class="cls-1" d="M166.38,424.68h-.54c-.47,0-.89.15-1.24.46s-.54.68-.56,1.13v13.41c0,2.64-.84,4.78-2.51,6.4-1.67,1.63-3.9,2.44-6.67,2.44s-5.03-.81-6.76-2.42-2.59-3.74-2.59-6.38v-13.35c0-.68-.29-1.17-.88-1.49-.27-.13-.58-.2-.91-.2h-.54v-.34h6.88v.34h-.54c-.5,0-.91.15-1.25.46s-.52.7-.54,1.17v12.94c0,2.46.66,4.45,1.98,5.96,1.32,1.51,3.09,2.27,5.3,2.27s4.01-.72,5.39-2.15,2.07-3.31,2.07-5.64v-13.38c-.02-.47-.2-.87-.54-1.17s-.76-.46-1.25-.46h-.54v-.34h6.27v.34Z"/><path class="cls-1" d="M170.1,447.71c.59,0,1.09-.21,1.51-.63.42-.42.64-.92.66-1.51v-18.77c-.02-.59-.24-1.09-.66-1.51-.42-.42-.92-.63-1.51-.63h-.44v-.34h7.42v.34h-.44c-.81,0-1.43.35-1.86,1.05-.2.34-.3.7-.3,1.08v20.19h4.84c1.67,0,2.95-.37,3.83-1.12.88-.74,1.61-1.85,2.2-3.32h.34l-1.96,5.49h-14.06v-.34h.44Z"/><path class="cls-1" d="M188.63,447.71c.59,0,1.09-.21,1.51-.63.42-.42.64-.92.66-1.51v-18.8c-.02-.59-.24-1.08-.66-1.49-.42-.41-.92-.61-1.51-.61h-.44v-.34h7.42v.34h-.44c-.59,0-1.09.2-1.51.61-.42.41-.64.9-.66,1.49v18.8c0,.59.21,1.09.64,1.51.43.42.94.63,1.52.63h.44v.34h-7.42v-.34h.44Z"/><path class="cls-1" d="M221.86,447.71h.27v.34h-7.62v-.34h.3c.47,0,.83-.15,1.07-.46.24-.3.36-.59.36-.87s-.05-.54-.14-.81l-2.17-5.76h-9.15l-2.27,5.79c-.09.27-.14.54-.14.79s.12.54.36.85c.24.3.59.46,1.07.46h.3v.34h-6.81v-.34h.3c.56,0,1.12-.18,1.66-.54s.98-.89,1.32-1.59l7.66-18.22c.83-1.83,1.25-2.99,1.25-3.49h.3l9.08,21.71c.32.7.75,1.23,1.29,1.59s1.11.54,1.69.54ZM205.2,438.8h8.33l-4.06-10.87-4.27,10.87Z"/><path class="cls-1" d="M248.54,448.05h-11.81l.05-.48h.58c.84,0,1.56-.29,2.15-.87.6-.58.91-1.29.94-2.13v-26.91c0-.84-.31-1.55-.92-2.13-.61-.58-1.34-.87-2.18-.87h-.58l-.05-.48h9.63c3.32,0,5.9.73,7.74,2.2s2.76,3.43,2.76,5.88c0,1.94-.52,3.54-1.55,4.82-1.03,1.27-2.29,2.12-3.77,2.54,2.55.39,4.56,1.44,6.05,3.15,1.48,1.71,2.23,3.86,2.23,6.46s-.99,4.72-2.98,6.37c-1.98,1.64-4.75,2.47-8.3,2.47ZM243.6,446.31h4.84c2.45,0,4.36-.67,5.71-2.01,1.35-1.34,2.03-3.23,2.03-5.69,0-1.39-.23-2.61-.7-3.65-.47-1.05-1.06-1.88-1.77-2.49-1.87-1.55-4.68-2.32-8.42-2.32h-.05v-.44h.46c.27,0,.67-.03,1.19-.1.52-.06,1.1-.18,1.74-.34.65-.16,1.23-.42,1.74-.78.52-.35,1-.77,1.45-1.26.94-1.06,1.4-2.65,1.4-4.77s-.6-3.77-1.81-4.96c-1.21-1.19-2.96-1.79-5.25-1.79h-2.56v30.58Z"/><path class="cls-1" d="M268.09,447.62c-.42.42-.94.63-1.55.63s-1.13-.21-1.55-.63c-.42-.42-.63-.94-.63-1.55s.21-1.13.63-1.55c.42-.42.94-.63,1.55-.63s1.13.21,1.55.63c.42.42.63.94.63,1.55s-.21,1.13-.63,1.55Z"/><path class="cls-1" d="M308.45,423.52c0,1.42-.29,2.74-.87,3.97-1.06,2.29-2.94,3.89-5.61,4.79-.94.32-1.74.48-2.42.48-2,0-3.73-.37-5.18-1.11v-.48c2.36.52,4.53.26,6.53-.77,1.77-.9,2.98-2.39,3.63-4.45.19-.64.29-1.26.29-1.84v-1.06c-.06-2.26-.66-4.06-1.79-5.4-1.13-1.34-2.71-2.01-4.74-2.01h-5.56v28.89c.03.84.35,1.56.94,2.15.6.6,1.31.89,2.15.89h.63v.48h-10.6v-.48h.63c.84,0,1.56-.3,2.15-.89s.91-1.31.94-2.15v-27.05c-.1-.8-.44-1.47-1.02-2.01-.58-.53-1.28-.8-2.08-.8h-.58l-.05-.48h12.63c3.1,0,5.53.83,7.31,2.49,1.78,1.66,2.66,3.94,2.66,6.85Z"/><path class="cls-1" d="M335.12,447.71h.27v.34h-7.62v-.34h.3c.47,0,.83-.15,1.07-.46s.36-.59.36-.87-.05-.54-.14-.81l-2.17-5.76h-9.15l-2.27,5.79c-.09.27-.14.54-.14.79s.12.54.36.85.59.46,1.07.46h.3v.34h-6.81v-.34h.3c.56,0,1.12-.18,1.66-.54s.98-.89,1.32-1.59l7.66-18.22c.83-1.83,1.25-2.99,1.25-3.49h.3l9.08,21.71c.32.7.75,1.23,1.29,1.59s1.11.54,1.69.54ZM318.45,438.8h8.33l-4.06-10.87-4.27,10.87Z"/><path class="cls-1" d="M352.83,430.88c0,.99-.2,1.92-.61,2.78-.75,1.6-2.06,2.72-3.93,3.35-.66.23-1.22.34-1.69.34-1.4,0-2.61-.26-3.62-.78v-.34c1.65.36,3.17.18,4.57-.54,1.24-.63,2.09-1.67,2.54-3.12.13-.45.2-.88.2-1.29v-.74c-.05-1.58-.46-2.84-1.25-3.78s-1.9-1.41-3.32-1.41h-3.9v20.22c.02.59.24,1.09.66,1.51s.92.63,1.51.63h.44v.34h-7.42v-.34h.44c.59,0,1.09-.21,1.51-.63.42-.42.64-.92.66-1.51v-18.94c-.07-.56-.3-1.03-.71-1.41-.41-.37-.89-.56-1.46-.56h-.41l-.03-.34h8.84c2.17,0,3.87.58,5.11,1.74,1.24,1.16,1.86,2.76,1.86,4.79Z"/><path class="cls-1" d="M363.37,425.39h-2.17v20.19c0,.59.21,1.09.63,1.51.42.42.93.63,1.54.63h.41l.03.34h-7.42v-.34h.44c.59,0,1.09-.2,1.51-.61.42-.41.64-.9.66-1.49v-18.8c-.02-.59-.24-1.09-.66-1.51-.42-.42-.92-.63-1.51-.63h-.44v-.34h9.15c2.05,0,3.67.57,4.84,1.71,1.17,1.14,1.76,2.62,1.76,4.44s-.56,3.39-1.68,4.71c-1.12,1.32-2.48,1.98-4.08,1.98.34.16.74.47,1.2.93s.88.94,1.24,1.44c1.94,2.78,3.21,4.49,3.79,5.13.59.64,1,1.08,1.25,1.32.25.24.52.47.81.7.29.22.59.41.88.54.66.32,1.36.47,2.1.47v.34h-1.86c-.97,0-1.88-.17-2.71-.53-.84-.35-1.46-.71-1.88-1.08-.42-.37-.78-.73-1.08-1.08-.3-.35-1.15-1.52-2.52-3.51-1.38-1.99-2.18-3.12-2.41-3.4-.23-.28-.46-.56-.71-.83-.72-.77-1.45-1.15-2.17-1.15v-.34c.18.02.42.04.71.04s.65-.01,1.08-.04c2.8-.07,4.56-1.24,5.28-3.52.14-.45.2-.88.2-1.27v-.76c-.04-1.51-.44-2.73-1.19-3.66s-1.75-1.42-3.01-1.49c-.54-.02-1.22-.04-2.03-.04Z"/><path class="cls-1" d="M400.53,447.71h.27v.34h-7.62v-.34h.3c.47,0,.83-.15,1.07-.46s.36-.59.36-.87-.05-.54-.14-.81l-2.17-5.76h-9.15l-2.27,5.79c-.09.27-.14.54-.14.79s.12.54.36.85.59.46,1.07.46h.3v.34h-6.81v-.34h.3c.56,0,1.12-.18,1.66-.54s.98-.89,1.32-1.59l7.66-18.22c.83-1.83,1.25-2.99,1.25-3.49h.3l9.08,21.71c.32.7.75,1.23,1.29,1.59s1.11.54,1.69.54ZM383.86,438.8h8.33l-4.06-10.87-4.27,10.87Z"/><path class="cls-1" d="M402.46,446.66c-.07-.32-.1-.93-.1-1.83s.17-1.86.51-2.88h.3c-.02.25-.03.5-.03.75,0,1.38.42,2.52,1.25,3.44.83.92,1.94,1.37,3.32,1.37s2.59-.43,3.51-1.29c.91-.86,1.37-1.94,1.37-3.24s-.44-2.35-1.32-3.17l-6.5-6.03c-1.22-1.13-1.83-2.5-1.83-4.1s.54-2.97,1.61-4.12,2.52-1.71,4.35-1.71c.86,0,1.83.11,2.91.34h1.32v4.17h-.3c0-1.06-.37-1.91-1.1-2.54-.73-.63-1.68-.95-2.83-.95s-2.12.38-2.9,1.15-1.17,1.73-1.17,2.88.45,2.15,1.36,2.98l6.67,6.17c1.13,1.04,1.69,2.46,1.69,4.27s-.58,3.29-1.73,4.46c-1.15,1.16-2.69,1.74-4.61,1.74-.99,0-2.05-.15-3.17-.46-1.12-.3-1.98-.77-2.59-1.41Z"/><path class="cls-1" d="M418.55,446.66c-.07-.32-.1-.93-.1-1.83s.17-1.86.51-2.88h.3c-.02.25-.03.5-.03.75,0,1.38.42,2.52,1.25,3.44.83.92,1.94,1.37,3.32,1.37s2.59-.43,3.51-1.29c.91-.86,1.37-1.94,1.37-3.24s-.44-2.35-1.32-3.17l-6.5-6.03c-1.22-1.13-1.83-2.5-1.83-4.1s.54-2.97,1.61-4.12,2.52-1.71,4.35-1.71c.86,0,1.83.11,2.91.34h1.32v4.17h-.3c0-1.06-.37-1.91-1.1-2.54-.73-.63-1.68-.95-2.83-.95s-2.12.38-2.9,1.15-1.17,1.73-1.17,2.88.45,2.15,1.36,2.98l6.67,6.17c1.13,1.04,1.69,2.46,1.69,4.27s-.58,3.29-1.73,4.46c-1.15,1.16-2.69,1.74-4.61,1.74-.99,0-2.05-.15-3.17-.46-1.12-.3-1.98-.77-2.59-1.41Z"/><path class="cls-1" d="M435,418.73c.9-.29,1.52-.71,1.84-1.26.32-.55.48-.97.48-1.26,0-.81-.34-1.6-1.02-2.37-.52-.58-.79-.98-.82-1.21-.13-.48-.1-.94.1-1.36.29-.64.84-.97,1.65-.97,1,0,1.69.46,2.08,1.38.39.92.58,1.8.58,2.64s-.27,1.68-.82,2.52c-.97,1.48-2.27,2.24-3.92,2.28l-.14-.39Z"/><path class="cls-2" d="M177.08,362.55c6.23,3.26,13.29,5.99,21.28,7.99-7.49-1.99-14.56-4.67-21.15-8.1-.04.04-.08.07-.12.11Z"/><path class="cls-8" d="M168.23,159.27c0,17.58,0,35.15,0,52.73,0,.82,0,1.64,0,2.85.09-.08.19-.15.28-.23v-27.49c0-9.09-.1-18.38-.28-27.86Z"/><path class="cls-4" d="M138.73,368.9c-1.74.72-3.56,1.32-5.49,1.76-9,2.06-17.77,2.33-26.03-2.77-8.43-5.21-10.1-14.18-4.35-22.61,4.15-6.09,7.78-12.49,9.99-19.73,4.02-13.15-.06-23.55-11.76-29.13-2.74-1.31-5.84-2.14-8.82-2.36-11.9-.88-22.1,4.73-25.08,17.45-1.48,6.32-.83,12.57,1.01,18.72,2.98,9.91,8.78,17.75,15.74,24.68,13.45,13.39,29.13,21.22,47.67,19.99,2.39-.16,4.76-.39,7.12-.69v-.57c0-1.59,0-3.16,0-4.73Z"/><path class="cls-7" d="M442.17,232.8c5.56-4.08,8.99-8.23,10.91-11.07-1.74,2.45-3.7,4.74-5.93,6.86-1.56,1.49-3.23,2.89-4.98,4.21Z"/><path class="cls-5" d="M366.96,364.23c-3.42-3.94-5.44-9.99-6.06-18.17-1.25-14.64-2.02-29.43-2.33-44.36-.23-10.77-.37-21.46-.43-32.09-5.8-.25-11.31-.57-16.37-.91,3.05,9.61,4.3,19.68,3.43,30.19-1.51,18.16-8.64,33.14-20.59,45.2-.02,1.22-.04,2.45-.07,3.67-.63,6.2-3.81,11.48-9.56,15.84-5.75,4.37-11.58,7.81-17.48,10.35v2.53c6.21-.56,13.44-.98,21.67-1.27,8.23-.28,15.45-.42,21.68-.42,7.14,0,14.22.15,21.21.42,6.99.29,14.05.71,21.21,1.27v-2.53c-7.46-2.54-12.9-5.77-16.31-9.72Z"/><path class="cls-6" d="M453.08,221.73c.73-1.03,1.42-2.08,2.07-3.16l.02-.46s-.6,1.42-2.09,3.62Z"/><path class="cls-3" d="M492.13,146.33c-6.37-11.34-15.78-20.28-28.2-26.8-8.08-4.35-17.48-7.61-28.2-9.79-10.72-2.17-19.97-3.26-27.73-3.26-11.19,0-22.53.47-34.03,1.4-11.5.93-23.46,1.4-35.89,1.4-6.84,0-13.98-.15-21.44-.47-7.46-.31-14.3-.77-20.51-1.4v2.8c9.94,4.66,16.31,9.95,19.11,15.85,2.8,5.91,4.35,12.12,4.66,18.64.62,16.16,1.24,33.09,1.87,50.81.32,9.14.55,18.07.71,26.8,5.86,1.88,20.49,6.45,33.32,9.44v-30.18c0-9.63.07-19.18.23-28.67.15-9.47.7-18.56,1.63-27.27.31-4.03.39-8.07.23-12.12-.16-4.03.7-7.76,2.56-11.19,4.66-.31,9.16-.7,13.52-1.16,4.35-.47,8.86-.7,13.52-.7,7.76,0,15.85.7,24.24,2.1,8.39,1.4,16,4.12,22.84,8.16,9.32,5.29,16.7,12.2,22.14,20.74,5.43,8.55,7.85,17.17,7.23,25.87,0,9.95-1.16,19.42-3.5,28.43-1.2,4.65-2.97,8.91-5.28,12.81-.64,1.08-1.34,2.13-2.07,3.16-1.93,2.84-5.35,6.99-10.91,11.07-13.39,9.83-39.18,19.24-86.37,9.05-10.06-2.17-21.08-5.23-33.17-9.37-3.72-1.27-7.53-2.64-11.46-4.13h-.03c-11.13-10.65-24.47-18.53-39.61-24.13-1.17-.43-2.33-.88-3.54-1.34.25-.44.3-.64.43-.73.58-.4,1.17-.76,1.76-1.14,10.99-7.07,19.71-16.11,25.01-28.25,8.66-19.87,2.66-41.82-15.05-54.24-10.38-7.28-22.19-10.32-34.66-10.39-11.56-.07-23.13-.09-34.69-.09-14.77-.01-29.54,0-44.31.02-6.75,0-13.51.02-20.26.02-.92,0-1.84.08-2.7.12v5.28c1.07,0,1.93.02,2.79,0,1.92-.04,3.85-.16,5.77-.14,7.96.07,12.92,2.93,15.01,8.72.76,2.11,1.14,4.6,1.14,7.49,0,9.91,0,19.82,0,29.74.18,9.47.28,18.76.28,27.86v27.49c12.42-10.03,27.1-11.54,41.93-13.28v-87.79h.34c1.06,0,1.92,0,2.77,0,5.87,0,11.78.45,17.58-.13,5.61-.56,9.41,1.76,12.63,5.74,1.92,2.37,3.87,4.79,5.31,7.46,8.46,15.74,9.36,32.25,4.05,49.06-4.36,13.82-12.54,24.14-27.72,27.04,3.6.61,7.05,1.14,10.49,1.78,45.03,8.44,75.6,50.4,70.68,94.54-3.74,33.57-22.14,57.54-54.09,69.67-20.54,7.8-39.92,4.96-56.88-9.84-2.84-2.48-5.36-5.18-7.61-8.05-4.88-6.23-8.49-13.3-11.31-20.85-11.86-31.68-8.3-61.13,13.14-87.81,5.8-7.22,12.35-13.46,20.96-16.78,1.79-.69,3.66-1.26,5.64-1.68,9.25-1.96,18.26-2.22,26.74,2.64,8.66,4.97,10.37,13.51,4.47,21.55-4.27,5.8-7.99,11.9-10.27,18.8-4.13,12.53.07,22.44,12.09,27.76,2.81,1.24,6,2.04,9.07,2.25,12.23.84,22.71-4.51,25.77-16.63,1.52-6.02.86-11.98-1.04-17.84-3.06-9.44-9.02-16.92-16.17-23.52-13.81-12.76-29.93-20.22-48.98-19.05-2.45.15-4.89.38-7.31.66-13.39,1.58-26.36,5.23-38.65,11.18-1.27.62-2.52,1.26-3.75,1.92-13.11,7.02-23.95,16.57-30.66,30.28-5.82,11.91-7.84,23.82-6.49,35.55,1.04,9.01,4.07,17.92,8.91,26.62,3.49,6.29,7.44,11.87,11.8,16.82,1.69,1.91,3.43,3.73,5.24,5.46,6.04,5.76,12.74,10.48,20.02,14.27,6.6,3.43,13.67,6.1,21.15,8.1,6.2,1.65,12.67,2.85,19.4,3.61,14.29,1.63,28.5.32,42.6-2.1,16.63-2.86,32.39-8.16,46.42-17.8,19.58-13.46,31.24-31.84,33.22-55.7,1.21-14.62-1.65-28.38-7.81-41.25,6.88.61,14.93,1.2,23.65,1.61,24.36,1.14,53.85.84,77.16-4.53,9.53-1.91,18.76-5.53,27.67-10.87,11.19-6.52,20.81-15.69,28.9-27.5,8.08-11.81,12.12-24.08,12.12-36.82,0-10.56-3.19-21.51-9.55-32.86Z"/></svg>